G04 PROTEUS RS274X GERBER FILE*
%FSLAX45Y45*%
%MOMM*%
G01*
%ADD18C,0.203200*%
%ADD72C,0.127000*%
%ADD73C,0.063500*%
D18*
X-11750000Y+6813500D02*
X-11750000Y+6686500D01*
X-11813500Y+6750000D02*
X-11686500Y+6750000D01*
X-11750000Y+5797500D02*
X-11750000Y+5670500D01*
X-11813500Y+5734000D02*
X-11686500Y+5734000D01*
X-12000000Y+6813500D02*
X-12000000Y+6686500D01*
X-12063500Y+6750000D02*
X-11936500Y+6750000D01*
X-12000000Y+5797500D02*
X-12000000Y+5670500D01*
X-12063500Y+5734000D02*
X-11936500Y+5734000D01*
X-12250000Y+6813500D02*
X-12250000Y+6686500D01*
X-12313500Y+6750000D02*
X-12186500Y+6750000D01*
X-12250000Y+5797500D02*
X-12250000Y+5670500D01*
X-12313500Y+5734000D02*
X-12186500Y+5734000D01*
X-12500000Y+6813500D02*
X-12500000Y+6686500D01*
X-12563500Y+6750000D02*
X-12436500Y+6750000D01*
X-12500000Y+5797500D02*
X-12500000Y+5670500D01*
X-12563500Y+5734000D02*
X-12436500Y+5734000D01*
X-12750000Y+6813500D02*
X-12750000Y+6686500D01*
X-12813500Y+6750000D02*
X-12686500Y+6750000D01*
X-12750000Y+5797500D02*
X-12750000Y+5670500D01*
X-12813500Y+5734000D02*
X-12686500Y+5734000D01*
X-11000000Y+7063500D02*
X-11000000Y+6936500D01*
X-11063500Y+7000000D02*
X-10936500Y+7000000D01*
X-10746000Y+7063500D02*
X-10746000Y+6936500D01*
X-10809500Y+7000000D02*
X-10682500Y+7000000D01*
X-10492000Y+7063500D02*
X-10492000Y+6936500D01*
X-10555500Y+7000000D02*
X-10428500Y+7000000D01*
X-10238000Y+7063500D02*
X-10238000Y+6936500D01*
X-10301500Y+7000000D02*
X-10174500Y+7000000D01*
X-9984000Y+7063500D02*
X-9984000Y+6936500D01*
X-10047500Y+7000000D02*
X-9920500Y+7000000D01*
X-9730000Y+7063500D02*
X-9730000Y+6936500D01*
X-9793500Y+7000000D02*
X-9666500Y+7000000D01*
X-9476000Y+7063500D02*
X-9476000Y+6936500D01*
X-9539500Y+7000000D02*
X-9412500Y+7000000D01*
X-9476000Y+7825500D02*
X-9476000Y+7698500D01*
X-9539500Y+7762000D02*
X-9412500Y+7762000D01*
X-9730000Y+7825500D02*
X-9730000Y+7698500D01*
X-9793500Y+7762000D02*
X-9666500Y+7762000D01*
X-9984000Y+7825500D02*
X-9984000Y+7698500D01*
X-10047500Y+7762000D02*
X-9920500Y+7762000D01*
X-10238000Y+7825500D02*
X-10238000Y+7698500D01*
X-10301500Y+7762000D02*
X-10174500Y+7762000D01*
X-10492000Y+7825500D02*
X-10492000Y+7698500D01*
X-10555500Y+7762000D02*
X-10428500Y+7762000D01*
X-10746000Y+7825500D02*
X-10746000Y+7698500D01*
X-10809500Y+7762000D02*
X-10682500Y+7762000D01*
X-11000000Y+7825500D02*
X-11000000Y+7698500D01*
X-11063500Y+7762000D02*
X-10936500Y+7762000D01*
X-8734000Y+7063500D02*
X-8734000Y+6936500D01*
X-8797500Y+7000000D02*
X-8670500Y+7000000D01*
X-8480000Y+7063500D02*
X-8480000Y+6936500D01*
X-8543500Y+7000000D02*
X-8416500Y+7000000D01*
X-8226000Y+7063500D02*
X-8226000Y+6936500D01*
X-8289500Y+7000000D02*
X-8162500Y+7000000D01*
X-7972000Y+7063500D02*
X-7972000Y+6936500D01*
X-8035500Y+7000000D02*
X-7908500Y+7000000D01*
X-7718000Y+7063500D02*
X-7718000Y+6936500D01*
X-7781500Y+7000000D02*
X-7654500Y+7000000D01*
X-7464000Y+7063500D02*
X-7464000Y+6936500D01*
X-7527500Y+7000000D02*
X-7400500Y+7000000D01*
X-7210000Y+7063500D02*
X-7210000Y+6936500D01*
X-7273500Y+7000000D02*
X-7146500Y+7000000D01*
X-7210000Y+7825500D02*
X-7210000Y+7698500D01*
X-7273500Y+7762000D02*
X-7146500Y+7762000D01*
X-7464000Y+7825500D02*
X-7464000Y+7698500D01*
X-7527500Y+7762000D02*
X-7400500Y+7762000D01*
X-7718000Y+7825500D02*
X-7718000Y+7698500D01*
X-7781500Y+7762000D02*
X-7654500Y+7762000D01*
X-7972000Y+7825500D02*
X-7972000Y+7698500D01*
X-8035500Y+7762000D02*
X-7908500Y+7762000D01*
X-8226000Y+7825500D02*
X-8226000Y+7698500D01*
X-8289500Y+7762000D02*
X-8162500Y+7762000D01*
X-8480000Y+7825500D02*
X-8480000Y+7698500D01*
X-8543500Y+7762000D02*
X-8416500Y+7762000D01*
X-8734000Y+7825500D02*
X-8734000Y+7698500D01*
X-8797500Y+7762000D02*
X-8670500Y+7762000D01*
X-6500000Y+7063500D02*
X-6500000Y+6936500D01*
X-6563500Y+7000000D02*
X-6436500Y+7000000D01*
X-6246000Y+7063500D02*
X-6246000Y+6936500D01*
X-6309500Y+7000000D02*
X-6182500Y+7000000D01*
X-5992000Y+7063500D02*
X-5992000Y+6936500D01*
X-6055500Y+7000000D02*
X-5928500Y+7000000D01*
X-5738000Y+7063500D02*
X-5738000Y+6936500D01*
X-5801500Y+7000000D02*
X-5674500Y+7000000D01*
X-5484000Y+7063500D02*
X-5484000Y+6936500D01*
X-5547500Y+7000000D02*
X-5420500Y+7000000D01*
X-5230000Y+7063500D02*
X-5230000Y+6936500D01*
X-5293500Y+7000000D02*
X-5166500Y+7000000D01*
X-4976000Y+7063500D02*
X-4976000Y+6936500D01*
X-5039500Y+7000000D02*
X-4912500Y+7000000D01*
X-4976000Y+7825500D02*
X-4976000Y+7698500D01*
X-5039500Y+7762000D02*
X-4912500Y+7762000D01*
X-5230000Y+7825500D02*
X-5230000Y+7698500D01*
X-5293500Y+7762000D02*
X-5166500Y+7762000D01*
X-5484000Y+7825500D02*
X-5484000Y+7698500D01*
X-5547500Y+7762000D02*
X-5420500Y+7762000D01*
X-5738000Y+7825500D02*
X-5738000Y+7698500D01*
X-5801500Y+7762000D02*
X-5674500Y+7762000D01*
X-5992000Y+7825500D02*
X-5992000Y+7698500D01*
X-6055500Y+7762000D02*
X-5928500Y+7762000D01*
X-6246000Y+7825500D02*
X-6246000Y+7698500D01*
X-6309500Y+7762000D02*
X-6182500Y+7762000D01*
X-6500000Y+7825500D02*
X-6500000Y+7698500D01*
X-6563500Y+7762000D02*
X-6436500Y+7762000D01*
X-12750000Y+7313500D02*
X-12750000Y+7186500D01*
X-12813500Y+7250000D02*
X-12686500Y+7250000D01*
X-12496000Y+7313500D02*
X-12496000Y+7186500D01*
X-12559500Y+7250000D02*
X-12432500Y+7250000D01*
X-12242000Y+7313500D02*
X-12242000Y+7186500D01*
X-12305500Y+7250000D02*
X-12178500Y+7250000D01*
X-11988000Y+7313500D02*
X-11988000Y+7186500D01*
X-12051500Y+7250000D02*
X-11924500Y+7250000D01*
X-11988000Y+8075500D02*
X-11988000Y+7948500D01*
X-12051500Y+8012000D02*
X-11924500Y+8012000D01*
X-12242000Y+8075500D02*
X-12242000Y+7948500D01*
X-12305500Y+8012000D02*
X-12178500Y+8012000D01*
X-12496000Y+8075500D02*
X-12496000Y+7948500D01*
X-12559500Y+8012000D02*
X-12432500Y+8012000D01*
X-12750000Y+8075500D02*
X-12750000Y+7948500D01*
X-12813500Y+8012000D02*
X-12686500Y+8012000D01*
X-13794901Y+7044901D02*
X-13705099Y+6955099D01*
X-13794901Y+6955099D02*
X-13705099Y+7044901D01*
X-13794901Y+6790901D02*
X-13705099Y+6701099D01*
X-13794901Y+6701099D02*
X-13705099Y+6790901D01*
X-6044901Y+6544901D02*
X-5955099Y+6455099D01*
X-6044901Y+6455099D02*
X-5955099Y+6544901D01*
X-6044901Y+6290901D02*
X-5955099Y+6201099D01*
X-6044901Y+6201099D02*
X-5955099Y+6290901D01*
X-14000000Y+5500000D02*
X-4750000Y+5500000D01*
X-4750000Y+8250000D01*
X-14000000Y+8250000D01*
X-14000000Y+5500000D01*
D72*
X-14025400Y+4458600D02*
X-11381260Y+4458600D01*
X-11381260Y+5220600D01*
X-14025400Y+5220600D01*
X-14025400Y+4458600D01*
D73*
X-13558038Y+5220600D02*
X-13558038Y+4458600D01*
X-12745238Y+5220600D02*
X-12745238Y+4458600D01*
X-11912118Y+5220600D02*
X-11912118Y+4458600D01*
X-14025400Y+4947550D02*
X-11381260Y+4947550D01*
X-14025400Y+4706250D02*
X-11381260Y+4706250D01*
D72*
X-13968250Y+5056770D02*
X-13953010Y+5041530D01*
X-13892050Y+5041530D01*
X-13876810Y+5056770D01*
X-13876810Y+5072010D01*
X-13892050Y+5087250D01*
X-13953010Y+5087250D01*
X-13968250Y+5102490D01*
X-13968250Y+5117730D01*
X-13953010Y+5132970D01*
X-13892050Y+5132970D01*
X-13876810Y+5117730D01*
X-13754890Y+5132970D02*
X-13846330Y+5041530D01*
X-13846330Y+5132970D02*
X-13800610Y+5087250D01*
X-13724410Y+5041530D02*
X-13724410Y+5132970D01*
X-13678690Y+5087250D01*
X-13632970Y+5132970D01*
X-13632970Y+5041530D01*
X-13500890Y+5056770D02*
X-13485650Y+5041530D01*
X-13424690Y+5041530D01*
X-13409450Y+5056770D01*
X-13409450Y+5072010D01*
X-13424690Y+5087250D01*
X-13485650Y+5087250D01*
X-13500890Y+5102490D01*
X-13500890Y+5117730D01*
X-13485650Y+5132970D01*
X-13424690Y+5132970D01*
X-13409450Y+5117730D01*
X-13363730Y+5132970D02*
X-13302770Y+5132970D01*
X-13333250Y+5132970D02*
X-13333250Y+5041530D01*
X-13363730Y+5041530D02*
X-13302770Y+5041530D01*
X-13257050Y+5132970D02*
X-13165610Y+5132970D01*
X-13257050Y+5041530D01*
X-13165610Y+5041530D01*
X-13043690Y+5041530D02*
X-13135130Y+5041530D01*
X-13135130Y+5132970D01*
X-13043690Y+5132970D01*
X-13135130Y+5087250D02*
X-13074170Y+5087250D01*
X-12688090Y+5041530D02*
X-12688090Y+5132970D01*
X-12611890Y+5132970D01*
X-12596650Y+5117730D01*
X-12596650Y+5102490D01*
X-12611890Y+5087250D01*
X-12688090Y+5087250D01*
X-12566170Y+5132970D02*
X-12566170Y+5041530D01*
X-12474730Y+5041530D01*
X-12444250Y+5041530D02*
X-12444250Y+5102490D01*
X-12413770Y+5132970D01*
X-12383290Y+5132970D01*
X-12352810Y+5102490D01*
X-12352810Y+5041530D01*
X-12444250Y+5072010D02*
X-12352810Y+5072010D01*
X-12322330Y+5132970D02*
X-12230890Y+5132970D01*
X-12276610Y+5132970D02*
X-12276610Y+5041530D01*
X-12108970Y+5041530D02*
X-12200410Y+5041530D01*
X-12200410Y+5132970D01*
X-12108970Y+5132970D01*
X-12200410Y+5087250D02*
X-12139450Y+5087250D01*
X-12078490Y+5041530D02*
X-12078490Y+5132970D01*
X-12017530Y+5132970D01*
X-11987050Y+5102490D01*
X-11987050Y+5072010D01*
X-12017530Y+5041530D01*
X-12078490Y+5041530D01*
X-11854970Y+5102490D02*
X-11824490Y+5132970D01*
X-11794010Y+5132970D01*
X-11763530Y+5102490D01*
X-11763530Y+5072010D01*
X-11794010Y+5041530D01*
X-11824490Y+5041530D01*
X-11854970Y+5072010D01*
X-11854970Y+5102490D01*
X-11794010Y+5072010D02*
X-11763530Y+5041530D01*
X-11733050Y+5132970D02*
X-11641610Y+5132970D01*
X-11687330Y+5132970D02*
X-11687330Y+5041530D01*
X-11519690Y+5132970D02*
X-11611130Y+5041530D01*
X-11611130Y+5132970D02*
X-11565410Y+5087250D01*
D18*
X-13779020Y+4896750D02*
X-13779020Y+4769750D01*
X-13842520Y+4833250D02*
X-13715520Y+4833250D01*
D72*
X-13481840Y+4807850D02*
X-13481840Y+4858650D01*
X-13469140Y+4871350D01*
X-13418340Y+4871350D01*
X-13405640Y+4858650D01*
X-13405640Y+4807850D01*
X-13418340Y+4795150D01*
X-13469140Y+4795150D01*
X-13481840Y+4807850D01*
X-13481840Y+4795150D02*
X-13405640Y+4871350D01*
X-13342140Y+4807850D02*
X-13329440Y+4807850D01*
X-13329440Y+4795150D01*
X-13342140Y+4795150D01*
X-13342140Y+4807850D01*
X-13265940Y+4871350D02*
X-13202440Y+4871350D01*
X-13202440Y+4858650D01*
X-13265940Y+4795150D01*
X-13100840Y+4858650D02*
X-13113540Y+4871350D01*
X-13151640Y+4871350D01*
X-13164340Y+4858650D01*
X-13164340Y+4807850D01*
X-13151640Y+4795150D01*
X-13113540Y+4795150D01*
X-13100840Y+4807850D01*
X-13100840Y+4820550D01*
X-13113540Y+4833250D01*
X-13164340Y+4833250D01*
X-13062740Y+4858650D02*
X-13050040Y+4871350D01*
X-13011940Y+4871350D01*
X-12999240Y+4858650D01*
X-12999240Y+4845950D01*
X-13011940Y+4833250D01*
X-13050040Y+4833250D01*
X-13062740Y+4820550D01*
X-13062740Y+4795150D01*
X-12999240Y+4795150D01*
X-12973840Y+4795150D02*
X-12973840Y+4845950D01*
X-12973840Y+4833250D02*
X-12961140Y+4845950D01*
X-12935740Y+4820550D01*
X-12910340Y+4845950D01*
X-12897640Y+4833250D01*
X-12897640Y+4795150D01*
X-12872240Y+4795150D02*
X-12872240Y+4845950D01*
X-12872240Y+4833250D02*
X-12859540Y+4845950D01*
X-12834140Y+4820550D01*
X-12808740Y+4845950D01*
X-12796040Y+4833250D01*
X-12796040Y+4795150D01*
X-12580140Y+4871350D02*
X-12656340Y+4795150D01*
X-12656340Y+4871350D02*
X-12618240Y+4833250D01*
X-12478540Y+4795150D02*
X-12554740Y+4795150D01*
X-12554740Y+4871350D01*
X-12478540Y+4871350D01*
X-12554740Y+4833250D02*
X-12503940Y+4833250D01*
X-12453140Y+4807850D02*
X-12440440Y+4795150D01*
X-12389640Y+4795150D01*
X-12376940Y+4807850D01*
X-12376940Y+4820550D01*
X-12389640Y+4833250D01*
X-12440440Y+4833250D01*
X-12453140Y+4845950D01*
X-12453140Y+4858650D01*
X-12440440Y+4871350D01*
X-12389640Y+4871350D01*
X-12376940Y+4858650D01*
X-11734320Y+4858650D02*
X-11747020Y+4871350D01*
X-11785120Y+4871350D01*
X-11797820Y+4858650D01*
X-11797820Y+4807850D01*
X-11785120Y+4795150D01*
X-11747020Y+4795150D01*
X-11734320Y+4807850D01*
X-11734320Y+4820550D01*
X-11747020Y+4833250D01*
X-11797820Y+4833250D01*
X-11708920Y+4807850D02*
X-11708920Y+4858650D01*
X-11696220Y+4871350D01*
X-11645420Y+4871350D01*
X-11632720Y+4858650D01*
X-11632720Y+4807850D01*
X-11645420Y+4795150D01*
X-11696220Y+4795150D01*
X-11708920Y+4807850D01*
X-11708920Y+4795150D02*
X-11632720Y+4871350D01*
D18*
X-13823921Y+4636851D02*
X-13734119Y+4547049D01*
X-13823921Y+4547049D02*
X-13734119Y+4636851D01*
D72*
X-13456440Y+4604650D02*
X-13431040Y+4630050D01*
X-13431040Y+4553850D01*
X-13342140Y+4566550D02*
X-13329440Y+4566550D01*
X-13329440Y+4553850D01*
X-13342140Y+4553850D01*
X-13342140Y+4566550D01*
X-13278640Y+4566550D02*
X-13278640Y+4617350D01*
X-13265940Y+4630050D01*
X-13215140Y+4630050D01*
X-13202440Y+4617350D01*
X-13202440Y+4566550D01*
X-13215140Y+4553850D01*
X-13265940Y+4553850D01*
X-13278640Y+4566550D01*
X-13278640Y+4553850D02*
X-13202440Y+4630050D01*
X-13151640Y+4604650D02*
X-13126240Y+4630050D01*
X-13126240Y+4553850D01*
X-12999240Y+4617350D02*
X-13011940Y+4630050D01*
X-13050040Y+4630050D01*
X-13062740Y+4617350D01*
X-13062740Y+4566550D01*
X-13050040Y+4553850D01*
X-13011940Y+4553850D01*
X-12999240Y+4566550D01*
X-12999240Y+4579250D01*
X-13011940Y+4591950D01*
X-13062740Y+4591950D01*
X-12973840Y+4553850D02*
X-12973840Y+4604650D01*
X-12973840Y+4591950D02*
X-12961140Y+4604650D01*
X-12935740Y+4579250D01*
X-12910340Y+4604650D01*
X-12897640Y+4591950D01*
X-12897640Y+4553850D01*
X-12872240Y+4553850D02*
X-12872240Y+4604650D01*
X-12872240Y+4591950D02*
X-12859540Y+4604650D01*
X-12834140Y+4579250D01*
X-12808740Y+4604650D01*
X-12796040Y+4591950D01*
X-12796040Y+4553850D01*
X-12580140Y+4630050D02*
X-12656340Y+4553850D01*
X-12656340Y+4630050D02*
X-12618240Y+4591950D01*
X-12478540Y+4553850D02*
X-12554740Y+4553850D01*
X-12554740Y+4630050D01*
X-12478540Y+4630050D01*
X-12554740Y+4591950D02*
X-12503940Y+4591950D01*
X-12453140Y+4566550D02*
X-12440440Y+4553850D01*
X-12389640Y+4553850D01*
X-12376940Y+4566550D01*
X-12376940Y+4579250D01*
X-12389640Y+4591950D01*
X-12440440Y+4591950D01*
X-12453140Y+4604650D01*
X-12453140Y+4617350D01*
X-12440440Y+4630050D01*
X-12389640Y+4630050D01*
X-12376940Y+4617350D01*
X-11734320Y+4579250D02*
X-11810520Y+4579250D01*
X-11759720Y+4630050D01*
X-11759720Y+4553850D01*
M02*
